Coordinates
version=1
nRows=16
nColumns=63
inDegrees=yes

Units are S.I. units (second, meters, Newtons, ...)
If the header above contains a line with 'inDegrees', this indicates whether rotational values are in degrees (yes) or radians (no).

endheader
time	pelvis_tilt	pelvis_list	pelvis_rotation	pelvis_tx	pelvis_ty	pelvis_tz	hip_flexion_r	hip_adduction_r	hip_rotation_r	knee_angle_r	knee_angle_r_beta	ankle_angle_r	subtalar_angle_r	mtp_angle_r	hip_flexion_l	hip_adduction_l	hip_rotation_l	knee_angle_l	knee_angle_l_beta	ankle_angle_l	subtalar_angle_l	mtp_angle_l	L5_S1_Flex_Ext	L5_S1_Lat_Bending	L5_S1_axial_rotation	L4_L5_Flex_Ext	L4_L5_Lat_Bending	L4_L5_axial_rotation	L3_L4_Flex_Ext	L3_L4_Lat_Bending	L3_L4_axial_rotation	L2_L3_Flex_Ext	L2_L3_Lat_Bending	L2_L3_axial_rotation	L1_L2_Flex_Ext	L1_L2_Lat_Bending	L1_L2_axial_rotation	L1_T12_Flex_Ext	L1_T12_Lat_Bending	L1_T12_axial_rotation	Abs_r3	Abs_r2	Abs_r1	Abs_t1	Abs_t2	neck_flexion	neck_bending	neck_rotation	arm_flex_r	arm_add_r	arm_rot_r	elbow_flex_r	pro_sup_r	wrist_flex_r	wrist_dev_r	arm_flex_l	arm_add_l	arm_rot_l	elbow_flex_l	pro_sup_l	wrist_flex_l	wrist_dev_l
0.000000	-4.315991	-1.766337	75.550559	0.275901	0.947340	0.586087	2.605910	-6.894224	-4.941737	14.738267	0.257231	39.005497	16.698520	0.000000	-2.328074	5.667521	4.570341	3.566191	0.062242	32.947322	-16.396997	0.000000	0.201964	-0.580391	3.451747	0.375067	-0.771920	3.667481	0.331806	-1.411163	3.667481	0.230824	-1.411163	3.020278	0.187543	-1.183533	2.804544	0.115402	-0.899026	2.588810	1.442607	-6.565499	19.197579	0.000000	0.000000	21.133274	-2.468952	-26.070285	11.813731	-3.579903	65.031264	27.777254	25.619210	2.053889	2.700168	26.134298	-0.942344	98.801476	29.590184	33.923543	4.504281	2.725476
0.016667	-4.150755	-1.784617	75.809834	0.275917	0.947516	0.585959	2.531111	-6.704680	-5.064629	14.567922	0.254258	39.434066	16.623110	0.000000	-2.408711	5.458711	4.955005	3.523185	0.061491	32.718259	-16.466863	0.000000	0.204509	-0.569185	3.408281	0.379794	-0.757016	3.621298	0.335988	-1.383917	3.621298	0.233734	-1.383917	2.982246	0.189907	-1.160682	2.769228	0.116857	-0.881668	2.556211	1.460789	-6.438735	18.955835	0.000000	0.000000	21.081673	-2.391974	-26.256744	11.675012	-3.441734	63.956686	27.330595	29.387795	1.416577	2.823329	26.083081	-0.980384	98.392968	29.591498	35.909210	5.197251	4.039876
0.033333	-4.028341	-1.789421	76.065212	0.275899	0.947647	0.585752	2.429317	-6.565491	-5.220827	14.406274	0.251437	39.762899	16.569827	0.000000	-2.496590	5.300844	5.326914	3.458525	0.060363	32.533510	-16.536567	0.000000	0.206516	-0.561713	3.366235	0.383522	-0.747078	3.576624	0.339286	-1.365749	3.576624	0.236028	-1.365749	2.945455	0.191771	-1.145445	2.735066	0.118003	-0.870093	2.524676	1.475126	-6.354208	18.721988	0.000000	0.000000	21.026807	-2.327034	-26.402957	11.576570	-3.341726	63.308907	26.987651	32.079017	0.917251	2.879300	26.029549	-1.027041	98.084051	29.625736	37.509794	5.642169	5.004442
0.050000	-3.944953	-1.782579	76.313975	0.275851	0.947735	0.585481	2.305625	-6.471995	-5.403177	14.253648	0.248773	40.002429	16.536572	0.000000	-2.589588	5.189479	5.683706	3.375381	0.058912	32.389266	-16.605264	0.000000	0.208030	-0.557618	3.326036	0.386332	-0.741632	3.533913	0.341772	-1.355792	3.533913	0.237757	-1.355792	2.910281	0.193176	-1.137094	2.702404	0.118868	-0.863750	2.494527	1.485934	-6.307883	18.498412	0.000000	0.000000	20.970728	-2.273629	-26.512839	11.515748	-3.276278	63.042476	26.738769	33.800074	0.543264	2.879021	25.974732	-1.080928	97.865904	29.688736	38.753895	5.865960	5.654928
0.066667	-3.896796	-1.765923	76.553402	0.275780	0.947785	0.585157	2.165134	-6.419530	-5.604524	14.110369	0.246272	40.163088	16.521248	0.000000	-2.685585	5.120176	6.023023	3.276919	0.057193	32.281719	-16.672111	0.000000	0.209093	-0.556543	3.288110	0.388307	-0.740202	3.493617	0.343519	-1.353178	3.493617	0.238973	-1.353178	2.877096	0.194164	-1.134902	2.671589	0.119476	-0.862085	2.466083	1.493531	-6.295724	18.287482	0.000000	0.000000	20.915487	-2.231250	-26.590303	11.489890	-3.241789	63.111944	26.574300	34.658163	0.281969	2.833434	25.919663	-1.140657	97.729707	29.776338	39.670114	5.895547	6.027085
0.083333	-3.880076	-1.741284	76.780774	0.275688	0.947799	0.584795	2.012940	-6.403432	-5.817713	13.976761	0.243941	40.255311	16.521757	0.000000	-2.782458	5.088494	6.342503	3.166306	0.055262	32.207062	-16.736264	0.000000	0.209752	-0.558132	3.252885	0.389530	-0.742315	3.456190	0.344601	-1.357041	3.456190	0.239725	-1.357041	2.846274	0.194775	-1.138142	2.642969	0.119852	-0.864546	2.439664	1.498234	-6.313697	18.091571	0.000000	0.000000	20.863138	-2.199393	-26.639264	11.496339	-3.234659	63.471861	26.484592	34.760482	0.120719	2.753479	25.865370	-1.204842	97.666640	29.884380	40.287051	5.757855	6.156667
0.100000	-3.890996	-1.710493	76.993370	0.275582	0.947782	0.584407	1.854141	-6.419041	-6.035591	13.853151	0.241783	40.289531	16.536001	0.000000	-2.878085	5.089994	6.639786	3.046710	0.053175	32.161485	-16.796878	0.000000	0.210049	-0.562027	3.220788	0.390083	-0.747496	3.422087	0.345090	-1.366513	3.422087	0.240065	-1.366513	2.818189	0.195052	-1.146086	2.616890	0.120022	-0.870580	2.415591	1.500361	-6.357766	17.913054	0.000000	0.000000	20.815732	-2.177551	-26.663635	11.532439	-3.251287	64.076778	26.459994	34.214228	0.046866	2.650098	25.812886	-1.272094	97.667883	30.008703	40.633305	5.479807	6.079428
0.116667	-3.925761	-1.675380	77.188472	0.275465	0.947737	0.584007	1.693834	-6.461693	-6.251002	13.739861	0.239806	40.276182	16.561882	0.000000	-2.970345	5.120234	6.912511	2.921297	0.050986	32.141182	-16.853110	0.000000	0.210031	-0.567873	3.192244	0.390048	-0.755272	3.391760	0.345060	-1.380727	3.391760	0.240044	-1.380727	2.793214	0.195035	-1.158007	2.593698	0.120012	-0.879636	2.394183	1.500229	-6.423897	17.754305	0.000000	0.000000	20.775321	-2.165218	-26.667331	11.595533	-3.288073	64.881245	26.490856	33.126600	0.047763	2.534230	25.763241	-1.341028	97.724616	30.145144	40.737478	5.088327	5.831121
0.133333	-3.980575	-1.637777	77.363360	0.275342	0.947668	0.583608	1.537118	-6.526727	-6.456792	13.637219	0.238014	40.225695	16.597303	0.000000	-3.057117	5.174775	7.158320	2.793236	0.048751	32.142344	-16.904116	0.000000	0.209741	-0.575313	3.167682	0.389509	-0.765166	3.365662	0.344583	-1.398816	3.365662	0.239713	-1.398816	2.771722	0.194765	-1.173178	2.573742	0.119846	-0.891160	2.375762	1.498156	-6.508055	17.617698	0.000000	0.000000	20.743957	-2.161889	-26.654265	11.682965	-3.341415	65.839812	26.567525	31.604795	0.110763	2.416818	25.717466	-1.410255	97.828020	30.289544	40.628170	4.610338	5.447498
0.150000	-4.051644	-1.599516	77.515313	0.275218	0.947579	0.583224	1.389090	-6.609481	-6.645806	13.545548	0.236414	40.148506	16.640166	0.000000	-3.136277	5.249175	7.374851	2.665693	0.046525	32.161163	-16.949053	0.000000	0.209223	-0.583989	3.147528	0.388548	-0.776706	3.344248	0.343732	-1.419912	3.344248	0.239121	-1.419912	2.754087	0.194284	-1.190871	2.557366	0.119550	-0.904600	2.360646	1.494459	-6.606205	17.505606	0.000000	0.000000	20.723693	-2.167056	-26.628351	11.792078	-3.407713	66.907031	26.680352	29.756011	0.223220	2.308802	25.676591	-1.478389	97.969274	30.437740	40.333980	4.072765	4.964314
0.166667	-4.135172	-1.562426	77.641612	0.275097	0.947473	0.582868	1.254847	-6.705291	-6.810890	13.465174	0.235012	40.055048	16.688372	0.000000	-3.205705	5.338994	7.559743	2.541835	0.044363	32.193830	-16.987075	0.000000	0.208522	-0.593546	3.132209	0.387247	-0.789416	3.327972	0.342581	-1.443148	3.327972	0.238320	-1.443148	2.740683	0.193634	-1.210359	2.544920	0.119150	-0.919403	2.349156	1.489454	-6.714311	17.420405	0.000000	0.000000	20.716580	-2.180213	-26.593503	11.920216	-3.483367	68.037451	26.819685	27.687445	0.372485	2.221122	25.641647	-1.544041	98.139558	30.585573	39.883510	3.502531	4.417321
0.183333	-4.227293	-1.525726	77.725475	0.275023	0.947366	0.582554	1.142043	-6.807600	-6.913526	13.394748	0.233782	40.009610	16.707194	0.000000	-3.266102	5.441559	7.745314	2.437806	0.042548	32.217876	-17.061367	0.000000	0.207648	-0.604397	3.125585	0.385624	-0.803848	3.320934	0.341145	-1.469532	3.320934	0.237321	-1.469532	2.734887	0.192822	-1.232487	2.539538	0.118650	-0.936212	2.344189	1.483211	-6.837064	17.383566	0.000000	0.000000	20.723619	-2.192532	-26.583566	12.064403	-3.544635	69.054995	26.941205	26.009937	0.532911	2.166323	25.615273	-1.611450	98.260746	30.726571	39.305167	3.058544	4.026405
0.200000	-4.319793	-1.498148	77.766937	0.274971	0.947246	0.582294	1.063555	-6.908050	-6.964513	13.332121	0.232689	39.952949	16.737327	0.000000	-3.315061	5.544889	7.874059	2.330294	0.040671	32.241783	-17.104137	0.000000	0.207042	-0.614619	3.127718	0.384498	-0.817444	3.323200	0.340149	-1.494385	3.323200	0.236628	-1.494385	2.736753	0.192259	-1.253332	2.541271	0.118304	-0.952045	2.345789	1.478881	-6.952696	17.395429	0.000000	0.000000	20.765388	-2.220138	-26.559645	12.234341	-3.614645	70.082779	27.070476	24.166573	0.688639	2.195756	25.597693	-1.669889	98.431769	30.858422	38.585331	2.613853	3.612284
0.216667	-4.405568	-1.474941	77.770799	0.274938	0.947131	0.582113	1.014071	-7.001145	-6.976411	13.276844	0.231725	39.899238	16.791681	0.000000	-3.348475	5.641152	7.876677	2.241346	0.039119	32.297408	-17.025787	0.000000	0.205290	-0.623729	3.136847	0.381244	-0.829560	3.332900	0.337271	-1.516535	3.332900	0.234626	-1.516535	2.744741	0.190632	-1.271909	2.548688	0.117303	-0.966156	2.352635	1.466365	-7.055749	17.446202	0.000000	0.000000	20.840055	-2.253559	-26.536660	12.437853	-3.691033	71.115706	27.195235	22.213523	0.847770	2.305399	25.591620	-1.715296	98.629626	30.967143	37.810489	2.201945	3.206940
0.233333	-4.492883	-1.468600	77.740208	0.274930	0.947009	0.582038	1.013053	-7.088869	-6.920313	13.237006	0.231029	39.860148	16.829607	0.000000	-3.350055	5.737343	7.895197	2.169585	0.037866	32.327665	-17.025798	0.000000	0.204229	-0.633116	3.152796	0.379273	-0.842045	3.349846	0.335527	-1.539359	3.349846	0.233413	-1.539359	2.758697	0.189647	-1.291051	2.561647	0.116696	-0.980697	2.364597	1.458785	-7.161937	17.534907	0.000000	0.000000	20.937583	-2.299399	-26.554990	12.666292	-3.760459	72.116132	27.297179	20.290014	0.991483	2.471287	25.609007	-1.745434	98.885774	31.039634	37.042132	1.866297	2.815535
0.250000	-4.570846	-1.476327	77.677018	0.274926	0.946888	0.582080	1.053780	-7.162701	-6.814244	13.214564	0.230638	39.844362	16.873494	0.000000	-3.327327	5.822088	7.863190	2.106466	0.036765	32.360731	-17.011080	0.000000	0.203338	-0.640793	3.171263	0.377618	-0.852254	3.369467	0.334063	-1.558023	3.369467	0.232394	-1.558023	2.774855	0.188819	-1.306704	2.576651	0.116187	-0.992588	2.378447	1.452420	-7.248775	17.637615	0.000000	0.000000	21.057171	-2.352291	-26.561307	12.910230	-3.825807	73.029503	27.372468	18.523304	1.132857	2.696289	25.625543	-1.764522	99.089293	31.083796	36.326297	1.602400	2.507415
